<svg id="Layer_1" data-name="Layer 1" xmlns="http://www.w3.org/2000/svg" viewBox="0 0 117.13 39.39"><title>logoAdminprueba</title><path d="M7.8,40.16H7.37c-2.84,0-4.79-1.06-5.83-3.2a7.69,7.69,0,0,1-.48-5.06,10,10,0,0,1,.87-2.47,15.75,15.75,0,0,1,2.6-3.36,13.75,13.75,0,0,1,10.29-4.6q5.9,0,12.9,4.44a84.85,84.85,0,0,0,8.81-11.16q4.29-6.43,8.13-13.13A4,4,0,0,1,45,1.16c.09-.26.46-.39,1.1-.39s1.06.19,1,.44a145.23,145.23,0,0,0-2.83,18.9,125.23,125.23,0,0,0,0,18.58.44.44,0,0,1-.18.3,1.24,1.24,0,0,1-.81.32,4.21,4.21,0,0,1-2.12-1.13c-.49-.37-1.59-1.26-3.31-2.67A76.6,76.6,0,0,0,28.22,28a63.62,63.62,0,0,1-7.66,6.63q-1.85,1.29-3.8,2.48A20.25,20.25,0,0,1,7.8,40.16Zm-.14-1.77a12.44,12.44,0,0,0,3.8-.67q7-2.37,15.17-10.7-6.78-4-12-4a11.36,11.36,0,0,0-6.17,1.75,16.08,16.08,0,0,0-4.55,4.44,7.56,7.56,0,0,0-1.13,2.67,9.87,9.87,0,0,0-.16,1.2,5,5,0,0,0,1.38,4A5.11,5.11,0,0,0,7.66,38.39Zm35-.76A84.4,84.4,0,0,1,42,20.43a96,96,0,0,1,1.59-13Q41,11.56,38.24,15.64a92.55,92.55,0,0,1-9,11.28,105.86,105.86,0,0,1,9.14,7.16l2.42,2.1C41.49,36.73,42.12,37.22,42.7,37.63Z" transform="translate(-0.84 -0.77)" style="fill:#39cba7"/><path d="M60.18,33.72a3.45,3.45,0,0,1-1-.14,3.69,3.69,0,0,1-2.3-2,4.56,4.56,0,0,1-.53-1.38q-.78-1.72.07-6.15c.06-.33.25-1.13.57-2.37-1,1.52-1.66,2.57-2,3.13a21.68,21.68,0,0,1-2.37,2.89,11.62,11.62,0,0,1-2,1.74,4.16,4.16,0,0,1-2.26.71,2,2,0,0,1-1.5-.53,3.15,3.15,0,0,1-.59-2.94,6.79,6.79,0,0,1,.34-1.18A19.41,19.41,0,0,1,50.42,20a15.88,15.88,0,0,1,4-3.11A6.56,6.56,0,0,1,57.51,16a4.56,4.56,0,0,1,.92.09c.11-.46.3-1.17.6-2.14q2.28-6.69,5.82-9.78a5.46,5.46,0,0,1,1.8-1.08,3.48,3.48,0,0,1,1.49-.33,3.2,3.2,0,0,1,1.61.4,2.68,2.68,0,0,1,1.39,1.88,3.32,3.32,0,0,1,0,1.29Q70.54,9,66.39,13q-3.23,3-6.58,5.64c-.69,2.8-1.12,4.59-1.29,5.39-.12.64-.21,1.27-.28,1.89a17,17,0,0,0,0,2,1.25,1.25,0,0,0,0,.21,5.82,5.82,0,0,0,.92,2.6,1.91,1.91,0,0,0,1.52.81l.35-.05q1.86-.69,6-8.38a.94.94,0,0,1,.46-.37.86.86,0,0,1,.39-.09.55.55,0,0,1,.57.35.83.83,0,0,1,0,.53,31.49,31.49,0,0,1-4.4,7.78C62.79,32.93,61.48,33.72,60.18,33.72ZM48.83,28a2.86,2.86,0,0,0,1.61-.85c.83-.54,2.46-2.53,4.9-6q1.75-2.41,2.7-3.61l-.37,0q-1.94,0-4.33,2.14a20.84,20.84,0,0,0-4,5,10,10,0,0,0-.6,1.22.34.34,0,0,1,0,.16l-.1.18a3.88,3.88,0,0,0-.13.53,1.82,1.82,0,0,0,0,1,.05.05,0,0,0,0,0s0,0,.06.08S48.66,27.93,48.83,28ZM60.34,16.52q8.32-7.06,9-10a1.46,1.46,0,0,0-1.45-1.91,3.78,3.78,0,0,0-.85.19c-.15.07-.4.21-.74.41,0,0,0,0,0,0a2.63,2.63,0,0,1-.32.25,10.19,10.19,0,0,0-1.34,1.43A27.18,27.18,0,0,0,60.34,16.52Z" transform="translate(-0.84 -0.77)" style="fill:#fff"/><path d="M85,34.66a2.41,2.41,0,0,1-1.68-.55A2.73,2.73,0,0,1,82.58,32a10,10,0,0,1,.27-2.12,58.88,58.88,0,0,1,1.82-5.94,21.48,21.48,0,0,0,.76-2.76,3.32,3.32,0,0,0,0-1.85,1.69,1.69,0,0,0-1.29-.78l-.23,0,0,0a5,5,0,0,0-2.6,1.93,15.79,15.79,0,0,0-2.81,4.38q-.63,2.81-1.41,5.54l-.5,2c-.08.2-.46.3-1.13.3s-1.15-.2-1.11-.44q2-6.62,2.65-9.83a17,17,0,0,0,.48-4.65c0-.78-.17-1.21-.43-1.27a.24.24,0,0,0-.16,0,2.12,2.12,0,0,0-1.11.41,9.17,9.17,0,0,0-2.32,2.42,39.75,39.75,0,0,0-4.61,8.45,33.7,33.7,0,0,0-1.47,4.35l0,.27c0,.05-.13.1-.34.16a7,7,0,0,1-.82.18,5.73,5.73,0,0,1-.82.08c-.21,0-.32,0-.32,0a58.64,58.64,0,0,1,1.2-9.16A62,62,0,0,1,68,16.89c0-.05.13-.08.34-.1a6.28,6.28,0,0,1,.79.06,7.06,7.06,0,0,1,.76.14c.2.05.29.1.29.15a56.14,56.14,0,0,0-1.75,6.42c-.16.74-.31,1.48-.43,2.21q2.76-6.39,5.75-9.34a5.2,5.2,0,0,1,3.46-1.8,1.9,1.9,0,0,1,1.56.71q1,1.57.46,5.35,2.58-3.51,5-3.76a2.85,2.85,0,0,1,2.17.86c.32.33.47.55.46.64a4.87,4.87,0,0,1,0,3c-.24,1-.66,2.45-1.24,4.21a37.67,37.67,0,0,0-1.31,4.45c-.43,2-.17,3,.78,3A5.35,5.35,0,0,0,88,31a.34.34,0,0,0,.12-.12s.11-.14.23-.27a16.27,16.27,0,0,0,3.34-6.82l0-.37a.65.65,0,0,1,.34-.31,1.48,1.48,0,0,1,.7-.15,1,1,0,0,1,.46.11.26.26,0,0,1,.18.29,2.16,2.16,0,0,1-.06.38,18,18,0,0,1-3.78,7.69,11,11,0,0,1-.9,1A6.3,6.3,0,0,1,85,34.66Z" transform="translate(-0.84 -0.77)" style="fill:#fff"/><path d="M93.24,33.58a1.28,1.28,0,0,1-.76-.19.59.59,0,0,1-.26-.13,2.6,2.6,0,0,1-.85-1.11q-1.05-2.74.85-11.74c.25-1.18.52-2.36.81-3.55.06-.15.41-.23,1.06-.23.81,0,1.2.14,1.15.33q-1,3.49-1.73,7c-.93,4.38-1,7-.23,7.85a.38.38,0,0,1,.09.09.19.19,0,0,0,.17.07l.15,0h.08c.7-.17,1.52-1,2.44-2.42a34.59,34.59,0,0,0,3.33-6.61c.08-.12.26-.18.53-.18a.79.79,0,0,1,.51.12.31.31,0,0,1,.12.25,30.46,30.46,0,0,1-4.45,8.68,5.82,5.82,0,0,1-.87.9L95,33s0,0,0,0-.2.11-.32.18a.56.56,0,0,1-.28.12A2.7,2.7,0,0,1,93.24,33.58ZM95.15,14.1h-.42l-.41,0c-.11,0-.16,0-.16-.05l.73-4.7a1.19,1.19,0,0,1,.33,0c.61,0,1.24.06,1.88.14l-1.77,4.65S95.27,14.1,95.15,14.1Z" transform="translate(-0.84 -0.77)" style="fill:#fff"/><path d="M98.19,32.75c-.22,0-.33,0-.33-.07a55.86,55.86,0,0,1,1.2-9.21,59.63,59.63,0,0,1,1.8-6.68s.15-.06.37-.06.47,0,.78.05a6.4,6.4,0,0,1,.75.14c.19.06.28.11.28.15a59,59,0,0,0-1.72,6.4c-.34,1.55-.61,3.09-.81,4.63a47.28,47.28,0,0,1,5.94-10q2.28-2.79,4.12-2.79a2,2,0,0,1,1.82,1.8,9.09,9.09,0,0,1-.23,2.78c-.17.82-.45,1.91-.85,3.3a40,40,0,0,0-1.13,4,8.38,8.38,0,0,0-.24,2.66c.08.61.29.91.63.91a.73.73,0,0,0,.3,0,.47.47,0,0,0,.17,0l.17-.05a1.92,1.92,0,0,0,.51-.33,9.68,9.68,0,0,0,1.85-2.09,31.35,31.35,0,0,0,2.94-5.18.74.74,0,0,1,.72-.33c.56.07.81.26.73.58a18.62,18.62,0,0,1-1.33,2.92q-2.44,4.69-4.81,6a2.92,2.92,0,0,1-1.45.39,1.89,1.89,0,0,1-.63-.1q-2.38-.63-1.49-4.88A36.53,36.53,0,0,1,109.49,23c.4-1.32.69-2.4.88-3.24.36-1.78.28-2.67-.26-2.67l0,0c-.46,0-1.24.63-2.33,1.89a44.36,44.36,0,0,0-4.9,7.66,51.82,51.82,0,0,0-2.56,5.44,1.43,1.43,0,0,1-.14.2s-.13.08-.34.14A4.83,4.83,0,0,1,98.19,32.75Z" transform="translate(-0.84 -0.77)" style="fill:#fff"/></svg>