<svg id="visual" viewBox="0 0 900 600" width="900" height="600" xmlns="http://www.w3.org/2000/svg" xmlns:xlink="http://www.w3.org/1999/xlink" version="1.1"><rect x="0" y="0" width="900" height="600" fill="#001220"></rect><path d="M0 364L21.5 373.5C43 383 86 402 128.8 413.2C171.7 424.3 214.3 427.7 257.2 423.3C300 419 343 407 385.8 405.7C428.7 404.3 471.3 413.7 514.2 419C557 424.3 600 425.7 642.8 416C685.7 406.3 728.3 385.7 771.2 383.2C814 380.7 857 396.3 878.5 404.2L900 412L900 601L878.5 601C857 601 814 601 771.2 601C728.3 601 685.7 601 642.8 601C600 601 557 601 514.2 601C471.3 601 428.7 601 385.8 601C343 601 300 601 257.2 601C214.3 601 171.7 601 128.8 601C86 601 43 601 21.5 601L0 601Z" fill="#39cba7"></path><path d="M0 412L21.5 418.7C43 425.3 86 438.7 128.8 445.2C171.7 451.7 214.3 451.3 257.2 446.8C300 442.3 343 433.7 385.8 427C428.7 420.3 471.3 415.7 514.2 412.5C557 409.3 600 407.7 642.8 415.2C685.7 422.7 728.3 439.3 771.2 441.5C814 443.7 857 431.3 878.5 425.2L900 419L900 601L878.5 601C857 601 814 601 771.2 601C728.3 601 685.7 601 642.8 601C600 601 557 601 514.2 601C471.3 601 428.7 601 385.8 601C343 601 300 601 257.2 601C214.3 601 171.7 601 128.8 601C86 601 43 601 21.5 601L0 601Z" fill="#2db996"></path><path d="M0 438L21.5 449.2C43 460.3 86 482.7 128.8 484C171.7 485.3 214.3 465.7 257.2 460C300 454.3 343 462.7 385.8 467.3C428.7 472 471.3 473 514.2 474.3C557 475.7 600 477.3 642.8 483C685.7 488.7 728.3 498.3 771.2 500C814 501.7 857 495.3 878.5 492.2L900 489L900 601L878.5 601C857 601 814 601 771.2 601C728.3 601 685.7 601 642.8 601C600 601 557 601 514.2 601C471.3 601 428.7 601 385.8 601C343 601 300 601 257.2 601C214.3 601 171.7 601 128.8 601C86 601 43 601 21.5 601L0 601Z" fill="#21a785"></path><path d="M0 530L21.5 528.3C43 526.7 86 523.3 128.8 519.7C171.7 516 214.3 512 257.2 514.5C300 517 343 526 385.8 526C428.7 526 471.3 517 514.2 516.7C557 516.3 600 524.7 642.8 530.2C685.7 535.7 728.3 538.3 771.2 537.2C814 536 857 531 878.5 528.5L900 526L900 601L878.5 601C857 601 814 601 771.2 601C728.3 601 685.7 601 642.8 601C600 601 557 601 514.2 601C471.3 601 428.7 601 385.8 601C343 601 300 601 257.2 601C214.3 601 171.7 601 128.8 601C86 601 43 601 21.5 601L0 601Z" fill="#139574"></path><path d="M0 543L21.5 543.7C43 544.3 86 545.7 128.8 546.8C171.7 548 214.3 549 257.2 547.7C300 546.3 343 542.7 385.8 541.7C428.7 540.7 471.3 542.3 514.2 540.3C557 538.3 600 532.7 642.8 532C685.7 531.3 728.3 535.7 771.2 537.2C814 538.7 857 537.3 878.5 536.7L900 536L900 601L878.5 601C857 601 814 601 771.2 601C728.3 601 685.7 601 642.8 601C600 601 557 601 514.2 601C471.3 601 428.7 601 385.8 601C343 601 300 601 257.2 601C214.3 601 171.7 601 128.8 601C86 601 43 601 21.5 601L0 601Z" fill="#008464"></path></svg>